<mxfile host="app.diagrams.net" modified="2022-11-07T15:16:11.891Z" agent="5.0 (Macintosh; Intel Mac OS X 10_15_7) AppleWebKit/537.36 (KHTML, like Gecko) Chrome/106.0.0.0 Safari/537.36" etag="9RmEnvj5Rr7wzg3MFRkg" version="20.5.1" type="github">
  <diagram id="APL0nxcxLUfKRgPwbujM" name="第 1 页">
    <mxGraphModel dx="946" dy="474" grid="1" gridSize="10" guides="1" tooltips="1" connect="1" arrows="1" fold="1" page="1" pageScale="1" pageWidth="1169" pageHeight="827" math="0" shadow="0">
      <root>
        <mxCell id="0" />
        <mxCell id="1" parent="0" />
        <mxCell id="LqvaIks4Ke69UwxVxklY-8" style="edgeStyle=orthogonalEdgeStyle;rounded=0;orthogonalLoop=1;jettySize=auto;html=1;entryX=0.5;entryY=0;entryDx=0;entryDy=0;fontColor=#FFFFFF;" edge="1" parent="1" source="LqvaIks4Ke69UwxVxklY-1" target="LqvaIks4Ke69UwxVxklY-2">
          <mxGeometry relative="1" as="geometry">
            <Array as="points">
              <mxPoint x="130" y="150" />
              <mxPoint x="340" y="150" />
            </Array>
          </mxGeometry>
        </mxCell>
        <mxCell id="LqvaIks4Ke69UwxVxklY-9" style="edgeStyle=orthogonalEdgeStyle;rounded=0;orthogonalLoop=1;jettySize=auto;html=1;entryX=0.433;entryY=-0.017;entryDx=0;entryDy=0;entryPerimeter=0;fontColor=#FFFFFF;" edge="1" parent="1" source="LqvaIks4Ke69UwxVxklY-1" target="LqvaIks4Ke69UwxVxklY-5">
          <mxGeometry relative="1" as="geometry">
            <Array as="points">
              <mxPoint x="542" y="148.98000000000002" />
              <mxPoint x="340" y="148.98000000000002" />
            </Array>
          </mxGeometry>
        </mxCell>
        <mxCell id="LqvaIks4Ke69UwxVxklY-10" style="edgeStyle=orthogonalEdgeStyle;rounded=0;orthogonalLoop=1;jettySize=auto;html=1;entryX=0.5;entryY=0;entryDx=0;entryDy=0;fontColor=#FFFFFF;" edge="1" parent="1" source="LqvaIks4Ke69UwxVxklY-1" target="LqvaIks4Ke69UwxVxklY-3">
          <mxGeometry relative="1" as="geometry" />
        </mxCell>
        <mxCell id="LqvaIks4Ke69UwxVxklY-11" style="edgeStyle=orthogonalEdgeStyle;rounded=0;orthogonalLoop=1;jettySize=auto;html=1;entryX=0.5;entryY=0;entryDx=0;entryDy=0;fontColor=#FFFFFF;" edge="1" parent="1" source="LqvaIks4Ke69UwxVxklY-1" target="LqvaIks4Ke69UwxVxklY-4">
          <mxGeometry relative="1" as="geometry" />
        </mxCell>
        <mxCell id="LqvaIks4Ke69UwxVxklY-1" value="Morph" style="rounded=1;whiteSpace=wrap;html=1;fillColor=#008a00;fontColor=#ffffff;strokeColor=#005700;flipH=1;flipV=1;" vertex="1" parent="1">
          <mxGeometry x="270" y="50" width="140" height="50" as="geometry" />
        </mxCell>
        <mxCell id="LqvaIks4Ke69UwxVxklY-2" value="DSL定义" style="rounded=1;whiteSpace=wrap;html=1;fillColor=#4D4D4D;strokeColor=#82b366;fontColor=#FFFFFF;flipH=1;flipV=0;" vertex="1" parent="1">
          <mxGeometry x="70" y="200" width="120" height="50" as="geometry" />
        </mxCell>
        <mxCell id="LqvaIks4Ke69UwxVxklY-3" value="动态试图管理" style="rounded=1;whiteSpace=wrap;html=1;fillColor=#4D4D4D;strokeColor=#82b366;fontColor=#FFFFFF;flipH=1;flipV=0;" vertex="1" parent="1">
          <mxGeometry x="210" y="200" width="120" height="50" as="geometry" />
        </mxCell>
        <mxCell id="LqvaIks4Ke69UwxVxklY-4" value="视图构建" style="rounded=1;whiteSpace=wrap;html=1;fillColor=#4D4D4D;strokeColor=#82b366;fontColor=#FFFFFF;flipH=1;flipV=0;" vertex="1" parent="1">
          <mxGeometry x="350" y="200" width="120" height="50" as="geometry" />
        </mxCell>
        <mxCell id="LqvaIks4Ke69UwxVxklY-5" value="数据绑定" style="rounded=1;whiteSpace=wrap;html=1;fillColor=#4D4D4D;strokeColor=#82b366;fontColor=#FFFFFF;flipH=1;flipV=0;" vertex="1" parent="1">
          <mxGeometry x="490" y="200" width="120" height="50" as="geometry" />
        </mxCell>
      </root>
    </mxGraphModel>
  </diagram>
</mxfile>
